<?xml version="1.0" encoding="utf-8"?><svg viewBox="0 0 800 800" xmlns="http://www.w3.org/2000/svg" xmlns:xlink="http://www.w3.org/1999/xlink"><style>:root>svg{display:none}:root>svg:target{display:block}</style><svg viewBox="0 0 14 6" id="arrow" xmlns="http://www.w3.org/2000/svg"><path d="M7 6L.938 0h12.124L7 6z"/></svg><svg viewBox="0 0 15 16" id="check" xmlns="http://www.w3.org/2000/svg"><path fill-rule="evenodd" clip-rule="evenodd" d="M2.436 7.937l2.882 3.457 8.422-10.37c.63-.7 1.621.047 1.126.84L6.579 14.992c-.63.84-1.486.934-2.207.093L.184 9.9c-.81-1.214 1.261-2.943 2.252-1.962z"/></svg><svg viewBox="0 0 24 24" id="close" xmlns="http://www.w3.org/2000/svg"><path fill-rule="evenodd" clip-rule="evenodd" d="M19.207 6.207a1 1 0 00-1.414-1.414L12 10.586 6.207 4.793a1 1 0 00-1.414 1.414L10.586 12l-5.793 5.793a1 1 0 101.414 1.414L12 13.414l5.793 5.793a1 1 0 001.414-1.414L13.414 12l5.793-5.793z"/></svg><svg viewBox="0 0 30 31" id="exchange" xmlns="http://www.w3.org/2000/svg"><path d="M15 .205A15.013 15.013 0 002.904 6.31.648.648 0 003.54 7.33a.655.655 0 00.425-.262A13.672 13.672 0 0115 1.503c7.572 0 13.696 6.093 13.696 13.627 0 1.602-.307 3.117-.816 4.542H8.53l2.669-2.443a.648.648 0 00-.49-1.136.654.654 0 00-.386.173L6.41 19.835a.648.648 0 000 .963l3.913 3.569a.653.653 0 001.03-.76.65.65 0 00-.154-.203l-2.67-2.434h19.84a.654.654 0 00.612-.415A14.801 14.801 0 0030 15.13C30 6.895 23.276.205 15 .205zm4.209 5.506a.654.654 0 00-.591.43.646.646 0 00.183.705l2.67 2.444H1.569a.654.654 0 00-.55.405A14.856 14.856 0 000 15.13c0 8.235 6.723 14.925 15 14.925 4.961 0 9.367-2.417 12.096-6.114a.647.647 0 00-.38-1.013.657.657 0 00-.68.253c-2.494 3.377-6.498 5.576-11.036 5.576-7.572 0-13.696-6.093-13.696-13.627 0-1.598.309-3.12.816-4.542h19.35l-2.669 2.433a.648.648 0 00.406 1.13.655.655 0 00.47-.167l3.913-3.569a.647.647 0 000-.963l-3.913-3.569a.653.653 0 00-.468-.172z"/></svg><svg viewBox="0 0 35 19" id="menu" xmlns="http://www.w3.org/2000/svg"><path d="M0 0h35v3H0zM0 8h35v3H0zM0 16h35v3H0z"/></svg><svg fill="none" viewBox="0 0 20 20" id="search" xmlns="http://www.w3.org/2000/svg"><path d="M13.57 12.552a7.545 7.545 0 001.764-4.868A7.558 7.558 0 0013.09 2.29 7.636 7.636 0 007.667.055 7.637 7.637 0 002.246 2.29 7.56 7.56 0 000 7.684a7.56 7.56 0 002.246 5.394 7.637 7.637 0 005.421 2.235c1.808 0 3.52-.62 4.892-1.757l6.222 6.191a.714.714 0 001.01 0 .708.708 0 000-1.005l-6.222-6.19zm-10.314-.479a6.151 6.151 0 01-1.827-4.389c0-1.658.649-3.217 1.827-4.389a6.215 6.215 0 014.411-1.818c1.666 0 3.233.646 4.412 1.818a6.15 6.15 0 011.827 4.39 6.15 6.15 0 01-1.827 4.388 6.215 6.215 0 01-4.412 1.819 6.216 6.216 0 01-4.411-1.819z" fill="#7C7C7C"/></svg></svg>