<?xml version="1.0" encoding="utf-8"?><svg viewBox="0 0 800 800" xmlns="http://www.w3.org/2000/svg" xmlns:xlink="http://www.w3.org/1999/xlink"><style>:root>svg{display:none}:root>svg:target{display:block}</style><svg viewBox="0 0 14 6" id="arrow" xmlns="http://www.w3.org/2000/svg"><path d="M7 6L.938 0h12.124L7 6z"/></svg><svg viewBox="0 0 5 16" id="arrow-double" xmlns="http://www.w3.org/2000/svg"><path d="M4.405 2.556H3.168v12.198c0 .376-1.336.289-1.336-.043V2.556H.595c-.514 0-.738-.193-.5-.43L2.066.177a.621.621 0 01.87 0l1.97 1.95c.238.236.014.43-.5.43z"/><path d="M4.405 13.444H3.168V1.246c0-.376-1.336-.289-1.336.043v12.155H.595c-.514 0-.738.193-.5.43l1.97 1.949c.24.236.63.236.87 0l1.97-1.95c.238-.236.014-.43-.5-.43z"/></svg><svg viewBox="0 0 15 5" id="arrow2" xmlns="http://www.w3.org/2000/svg"><path d="M12.444 4.405V3.168H.246c-.376 0-.289-1.336.043-1.336h12.155V.595c0-.514.193-.738.43-.5l1.949 1.97c.236.24.236.63 0 .87l-1.95 1.97c-.236.238-.43.014-.43-.5z"/></svg><svg viewBox="0 0 80 71" id="attention" xmlns="http://www.w3.org/2000/svg"><path d="M39.686 60.327a4.042 4.042 0 100-8.084 4.042 4.042 0 000 8.084z"/><path fill-rule="evenodd" clip-rule="evenodd" d="M39.686 23.64c2.838 0 4.875 2.065 4.635 5.17l-1.239 18.026c-.177 2.28-1.817 3.188-3.396 3.188-1.573 0-3.214-.907-3.39-3.188L35.05 28.81c-.239-3.105 1.802-5.171 4.636-5.171z"/><path fill-rule="evenodd" clip-rule="evenodd" d="M39.68 7.957l32.526 56.796-65.036-.01L39.68 7.957zM38.774.166a2.644 2.644 0 00-1.354 1.16L.364 66.06c-1.026 1.77.239 3.99 2.271 3.979l74.119.006c2.016-.006 3.275-2.203 2.271-3.963L41.957 1.32A2.614 2.614 0 0038.774.166z"/></svg><svg viewBox="0 0 15 15" id="building" xmlns="http://www.w3.org/2000/svg"><path d="M.324 3.914l7.192-3.6 7.168 3.55.005.654H.313l.01-.604z"/><path d="M.482 4.185l.72-.36c.57-.286 1.141-.573 1.712-.858a2576.464 2576.464 0 003.873-1.94c.291-.146.589-.282.873-.437l.013-.007h-.316l.715.355 1.71.846 2.068 1.024c.597.297 1.195.593 1.794.888.288.143.574.3.868.43.005.001.008.004.012.006l-.154-.271.004.653.313-.313H.898c-.186 0-.374-.005-.56 0H.313l.313.314c.003-.201.008-.402.01-.603C.64 3.748.492 3.591.325 3.6a.32.32 0 00-.313.313L0 4.515a.317.317 0 00.313.313H14.102c.186 0 .374.003.56 0h.025A.317.317 0 0015 4.514l-.005-.653c0-.105-.058-.223-.155-.272-.24-.119-.483-.238-.724-.359-.574-.284-1.148-.567-1.72-.853l-2.089-1.035L8.525.46C8.244.32 7.964.177 7.681.041a.355.355 0 00-.337.003l-.098.049-.448.224-1.634.818-2.062 1.032-1.87.936-1.018.51c-.015.008-.03.016-.047.023-.147.074-.2.294-.112.43.095.157.27.198.427.12zM14.578 12.937H.424v1.75h14.154v-1.75z"/><path d="M.424 14.999h13.58c.184 0 .369.003.552 0h.023a.318.318 0 00.313-.314v-1.532-.218a.318.318 0 00-.313-.314H1c-.185 0-.37-.003-.553 0H.424a.318.318 0 00-.313.314v1.75c0 .165.144.321.313.314a.32.32 0 00.313-.314v-1.532-.218l-.313.314h13.58c.184 0 .369.004.552 0h.023l-.313-.314v1.75l.313-.314H1c-.185 0-.37-.003-.553 0H.424c-.164 0-.32.145-.313.314.008.17.138.314.313.314zM3.815 5.603h-1.85v6.231h1.85V5.603z"/><path d="M3.815 5.29H1.966a.318.318 0 00-.312.313v5.458c0 .253-.007.507 0 .76v.012c0 .169.143.313.312.313h1.849a.318.318 0 00.313-.313v-.621-1.484-1.801-1.553c0-.252.011-.508 0-.76v-.011l-.313.313c.165 0 .321-.144.313-.313a.32.32 0 00-.313-.314.318.318 0 00-.313.314v5.458c0 .253-.01.508 0 .76v.012l.313-.314H1.966l.313.314v-.621-1.484-1.801-1.553c0-.252.011-.508 0-.76v-.011l-.313.313h1.849c.165 0 .321-.144.313-.313a.32.32 0 00-.313-.314zM8.425 5.603h-1.85v6.23h1.85v-6.23z"/><path d="M8.425 11.52H6.576l.313.314v-.62V9.73 7.928 6.376c0-.253.011-.508 0-.76v-.012l-.313.314H8.425l-.313-.314v5.459c0 .252-.006.506 0 .76v.011c0 .165.144.322.313.314a.32.32 0 00.313-.314v-.62V9.73 7.928 6.376c0-.253.006-.507 0-.76v-.012a.318.318 0 00-.313-.313H6.576a.318.318 0 00-.313.313v5.459c0 .252-.006.506 0 .76v.011c0 .17.144.314.313.314H8.425c.165 0 .321-.144.313-.314a.318.318 0 00-.313-.313zM13.035 5.603h-1.85v6.23h1.85v-6.23z"/><path d="M13.035 11.52H11.186l.313.314v-.62V9.73 7.928 6.376c0-.253.011-.508 0-.76v-.012l-.313.314H13.035l-.313-.314v5.459c0 .252-.006.506 0 .76v.011c0 .165.144.322.313.314a.32.32 0 00.313-.314v-.62V9.73 7.928 6.376c0-.253.006-.507 0-.76v-.012a.318.318 0 00-.313-.313H11.186a.318.318 0 00-.313.313v5.459c0 .252-.006.506 0 .76v.011c0 .17.144.314.313.314H13.035c.165 0 .32-.144.313-.314a.318.318 0 00-.313-.313z"/></svg><svg viewBox="0 0 25 29" id="calendar" xmlns="http://www.w3.org/2000/svg"><path d="M.036 0v7.133H25V0H.036zm0 10.699v17.51a.32.32 0 00.32.322h24.287a.32.32 0 00.321-.321V10.699H0h.036zm3.566 3.566h3.566v3.567H3.602v-3.567zm7.133 0H14.3v3.567h-3.566v-3.567zm7.132 0h3.567v3.567h-3.567v-3.567zM3.602 21.398h3.566v3.566H3.602v-3.566zm7.133 0H14.3v3.566h-3.566v-3.566z"/></svg><svg fill="none" viewBox="0 0 17 17" id="cancel" xmlns="http://www.w3.org/2000/svg"><g stroke="#D00" stroke-linecap="round" stroke-linejoin="round"><path d="M8.5 16a7.5 7.5 0 100-15 7.5 7.5 0 000 15zM10.75 11.5l-4.5-6M6.25 11.5l4.5-6"/></g></svg><svg viewBox="0 0 15 12" id="card" xmlns="http://www.w3.org/2000/svg"><path d="M.469 0A.464.464 0 000 .469v1.406h15V.469A.464.464 0 0014.531 0H.47zM0 3.75v7.031c0 .263.206.469.469.469H14.53a.464.464 0 00.469-.469V3.75H0zM1.875 7.5H3.75v1.875H1.875V7.5zm3.75 0H7.5v1.875H5.625V7.5z"/></svg><svg viewBox="0 0 15 16" id="check" xmlns="http://www.w3.org/2000/svg"><path fill-rule="evenodd" clip-rule="evenodd" d="M2.436 7.937l2.882 3.457 8.422-10.37c.63-.7 1.621.047 1.126.84L6.579 14.992c-.63.84-1.486.934-2.207.093L.184 9.9c-.81-1.214 1.261-2.943 2.252-1.962z"/></svg><svg viewBox="0 0 22 20" id="check2" xmlns="http://www.w3.org/2000/svg"><path d="M2.938 20h12.96c1.62 0 2.938-1.383 2.938-3.082v-7.52c0-.431-.357-.806-.77-.806-.411 0-.768.346-.768.807v7.519c0 .806-.631 1.469-1.4 1.469H2.938c-.769 0-1.4-.663-1.4-1.47V3.32c0-.806.631-1.469 1.4-1.469h12.987c.412 0 .769-.346.769-.807 0-.46-.357-.806-.769-.806H2.938C1.318.238 0 1.62 0 3.32v13.598C0 18.618 1.318 20 2.938 20z"/><path d="M20.648.238L10.57 10.81 6.59 6.633c-.302-.317-.796-.317-1.071 0-.302.317-.302.835 0 1.124l4.53 4.753c.138.144.33.23.55.23a.85.85 0 00.549-.23L21.774 1.36c.302-.317.302-.835 0-1.123-.33-.317-.824-.317-1.126 0z"/></svg><svg viewBox="0 0 18 18" id="clock" xmlns="http://www.w3.org/2000/svg"><path d="M9 0C4.05 0 0 4.05 0 9s4.05 9 9 9 9-4.05 9-9-4.05-9-9-9zm0 2.25A6.741 6.741 0 0115.75 9 6.741 6.741 0 019 15.75 6.741 6.741 0 012.25 9 6.741 6.741 0 019 2.25zM7.875 4.5v4.995l.36.293 1.125 1.124.765.855 1.62-1.62-.855-.764-.765-.765V4.544h-2.25V4.5z"/></svg><svg viewBox="0 0 15 15" id="clock2" xmlns="http://www.w3.org/2000/svg"><path d="M7.5 0C3.375 0 0 3.375 0 7.5S3.375 15 7.5 15 15 11.625 15 7.5 11.625 0 7.5 0zm0 1.875A5.617 5.617 0 0113.125 7.5 5.617 5.617 0 017.5 13.125 5.617 5.617 0 011.875 7.5 5.617 5.617 0 017.5 1.875zM6.562 3.75v4.162l.3.244.938.938.638.712 1.35-1.35-.713-.637-.637-.638V3.788H6.562V3.75z"/></svg><svg viewBox="0 0 24 24" id="close" xmlns="http://www.w3.org/2000/svg"><path fill-rule="evenodd" clip-rule="evenodd" d="M19.207 6.207a1 1 0 00-1.414-1.414L12 10.586 6.207 4.793a1 1 0 00-1.414 1.414L10.586 12l-5.793 5.793a1 1 0 101.414 1.414L12 13.414l5.793 5.793a1 1 0 001.414-1.414L13.414 12l5.793-5.793z"/></svg><svg viewBox="0 0 21 25" id="copy" xmlns="http://www.w3.org/2000/svg"><path d="M20.991 6.384a.74.74 0 00-.189-.46L15.381.208a.669.669 0 00-.438-.2C14.93.008 14.918 0 14.905 0H6.096a.66.66 0 00-.48.21.735.735 0 00-.198.504v5H.677a.66.66 0 00-.479.21.735.735 0 00-.198.505v17.857c0 .19.071.37.198.505.127.134.3.209.48.209h14.225a.66.66 0 00.48-.21.734.734 0 00.198-.504v-5h4.742a.66.66 0 00.479-.21.735.735 0 00.198-.505V6.43c0-.016-.008-.03-.009-.045zm-5.41-3.945l3.106 3.275h-3.106V2.44zM14.226 23.57H1.355V7.143h7.451v5c0 .19.072.371.199.505s.3.21.479.21h4.742V23.57zM10.16 8.153l3.107 3.276H10.16V8.153zm5.42 9.704v-5.714c0-.016-.008-.029-.009-.044a.74.74 0 00-.189-.46l-.001-.001-5.419-5.714-.001-.001a.67.67 0 00-.437-.2c-.014 0-.027-.009-.041-.009h-2.71V1.43h7.452v5c0 .189.071.37.198.505.127.134.3.209.48.209h4.741v10.714h-4.064z"/></svg><svg viewBox="0 0 15 18" id="doc" xmlns="http://www.w3.org/2000/svg"><path d="M0 0v17.143h15V8.57H6.429V0H0zm8.571 0v6.429H15L8.571 0zM2.143 4.286h2.143v2.143H2.143V4.286zm0 4.285h2.143v2.143H2.143V8.571zm0 4.286h8.571V15H2.143v-2.143z"/></svg><svg viewBox="0 0 20 32" id="dollar" xmlns="http://www.w3.org/2000/svg"><path d="M8.024 0v3.992H5.03c-2.715 0-4.99 2.275-4.99 4.99v1.996c0 2.715 1.756 4.95 4.351 5.629l10.22 2.634c.559.16 1.357 1.158 1.357 1.757v1.996c0 .559-.44.998-.998.998H4.99c-.479 0-.838-.16-.998-.24V20H0v3.992c0 1.357.798 2.515 1.756 3.114.919.638 2.076.878 3.234.878h2.994v3.992h3.992v-3.992h2.994a4.992 4.992 0 004.99-4.99v-1.996c0-2.715-1.756-4.95-4.351-5.629l-10.22-2.634c-.559-.16-1.357-1.158-1.357-1.757V8.982c0-.559.44-.998.998-.998h9.98c.44 0 .838.16.998.24v3.752H20V7.984c0-1.357-.798-2.515-1.756-3.114-.919-.638-2.076-.878-3.234-.878h-2.994V0H8.024z"/></svg><svg fill="none" viewBox="0 0 17 17" id="done" xmlns="http://www.w3.org/2000/svg"><g stroke="#00BA13" stroke-linecap="round" stroke-linejoin="round"><path d="M4.75 8.875L7 11.125l5.25-5.25"/><path d="M8.5 16a7.5 7.5 0 100-15 7.5 7.5 0 000 15z"/></g></svg><svg viewBox="0 0 30 31" id="exchange" xmlns="http://www.w3.org/2000/svg"><path d="M15 .205A15.013 15.013 0 002.904 6.31.648.648 0 003.54 7.33a.655.655 0 00.425-.262A13.672 13.672 0 0115 1.503c7.572 0 13.696 6.093 13.696 13.627 0 1.602-.307 3.117-.816 4.542H8.53l2.669-2.443a.648.648 0 00-.49-1.136.654.654 0 00-.386.173L6.41 19.835a.648.648 0 000 .963l3.913 3.569a.653.653 0 001.03-.76.65.65 0 00-.154-.203l-2.67-2.434h19.84a.654.654 0 00.612-.415A14.801 14.801 0 0030 15.13C30 6.895 23.276.205 15 .205zm4.209 5.506a.654.654 0 00-.591.43.646.646 0 00.183.705l2.67 2.444H1.569a.654.654 0 00-.55.405A14.856 14.856 0 000 15.13c0 8.235 6.723 14.925 15 14.925 4.961 0 9.367-2.417 12.096-6.114a.647.647 0 00-.38-1.013.657.657 0 00-.68.253c-2.494 3.377-6.498 5.576-11.036 5.576-7.572 0-13.696-6.093-13.696-13.627 0-1.598.309-3.12.816-4.542h19.35l-2.669 2.433a.648.648 0 00.406 1.13.655.655 0 00.47-.167l3.913-3.569a.647.647 0 000-.963l-3.913-3.569a.653.653 0 00-.468-.172z"/></svg><svg viewBox="0 0 15 14" id="exit" xmlns="http://www.w3.org/2000/svg"><path d="M9.375 0v1.875h-7.5v9.375h7.5v1.875H0V0h9.375zm1.875 3.75L15 6.563l-3.75 2.812V7.5h-7.5V5.625h7.5V3.75z"/></svg><svg viewBox="0 0 15 15" id="key" xmlns="http://www.w3.org/2000/svg"><path d="M10.313 0a4.69 4.69 0 00-4.688 4.688c0 .3 0 .6.056.88L0 11.25V15h5.625v-3.75h3.75V9.375l.056-.056c.282.056.582.056.882.056A4.69 4.69 0 0015 4.687 4.69 4.69 0 0010.312 0zm.937 1.875a1.88 1.88 0 011.875 1.875 1.88 1.88 0 01-1.875 1.875A1.88 1.88 0 019.375 3.75a1.88 1.88 0 011.875-1.875z"/></svg><svg viewBox="0 0 15 15" id="link" xmlns="http://www.w3.org/2000/svg"><path d="M11.024 0c-.338.019-.676.056-.996.17-.507.187-.996.47-1.41.883A.94.94 0 109.915 2.35c.207-.207.452-.32.715-.414.658-.225 1.466-.131 1.992.414.733.733.733 1.955 0 2.706l-2.82 2.82c-.826.827-1.503.902-1.992.883-.489-.018-.77-.244-.77-.244a.951.951 0 10-.94 1.654s.639.414 1.579.47c.94.056 2.255-.3 3.402-1.466l2.82-2.82c1.466-1.466 1.466-3.834 0-5.282a3.654 3.654 0 00-1.824-.996C11.74 0 11.363 0 11.024.02V0zM7.265 4.342c-.94-.037-2.237.282-3.346 1.41L1.1 8.572c-1.466 1.466-1.466 3.834 0 5.281a3.696 3.696 0 003.873.884c.507-.188.996-.47 1.41-.884a.94.94 0 10-1.297-1.297c-.207.207-.452.32-.715.414-.658.225-1.466.131-1.992-.414-.733-.733-.733-1.954 0-2.706l2.82-2.82c.751-.752 1.41-.846 1.935-.827.527.019.884.17.884.17a.94.94 0 10.827-1.655s-.64-.376-1.579-.413v.037z"/></svg><svg viewBox="0 0 12 15" id="lock" xmlns="http://www.w3.org/2000/svg"><path d="M5.625 0a3.761 3.761 0 00-3.75 3.75H3.75c0-1.05.825-1.875 1.875-1.875S7.5 2.7 7.5 3.75V7.5H0V15h11.25V7.5H9.375V3.75A3.761 3.761 0 005.625 0z"/></svg><svg viewBox="0 0 18 14" id="mail" xmlns="http://www.w3.org/2000/svg"><path d="M0 0v2.25l9 4.5 9-4.5V0H0zm0 4.5v9h18v-9L9 9 0 4.5z"/></svg><svg viewBox="0 0 35 19" id="menu" xmlns="http://www.w3.org/2000/svg"><path d="M0 0h35v3H0zM0 8h35v3H0zM0 16h35v3H0z"/></svg><svg viewBox="0 0 20 20" id="planet" xmlns="http://www.w3.org/2000/svg"><path d="M17.891 16.138a9.953 9.953 0 000-12.253.509.509 0 00-.155-.222 10 10 0 100 12.674.484.484 0 00.155-.2zm-3.507-2.664c.167-.998.264-2.007.288-3.019h4.395a9.132 9.132 0 01-1.509 4.617c-.555-.71-1.71-1.243-3.174-1.598zm-4.373 5.594c-1.288 0-2.664-1.887-3.352-4.906a19.019 19.019 0 013.396-.289c1.108 0 2.214.09 3.308.267-.71 3.04-2.087 4.928-3.352 4.928zm.044-6.082c-1.198 0-2.394.104-3.574.31a18.455 18.455 0 01-.266-2.84h7.57a18.427 18.427 0 01-.267 2.818 21.858 21.858 0 00-3.463-.288zm-7.57 2.153a8.932 8.932 0 01-1.553-4.684h4.395c.025 1.02.121 2.035.289 3.041-1.443.355-2.62.91-3.13 1.643zm3.13-8.59a21.752 21.752 0 00-.288 3.04H.932c.08-1.677.625-3.3 1.576-4.683.488.71 1.643 1.265 3.108 1.642zM10.012.91c1.287 0 2.664 1.91 3.352 4.972-1.092.19-2.2.278-3.308.267A18.826 18.826 0 016.66 5.86C7.325 2.82 8.723.91 10.01.91zm.044 6.127a22.372 22.372 0 003.485-.289c.161.932.25 1.874.267 2.82H6.215c.015-.953.104-1.903.266-2.842 1.179.218 2.376.322 3.574.31zm7.503-2.065a8.926 8.926 0 011.51 4.617h-4.396a18.582 18.582 0 00-.288-3.019c1.465-.355 2.641-.887 3.174-1.598zm-.577-.777c-.178.51-1.154 1.11-2.775 1.51-.421-1.931-1.132-3.507-1.998-4.506a8.961 8.961 0 014.773 2.996zM7.813 1.2c-.888.999-1.576 2.575-2.02 4.484-1.642-.422-2.62-1.044-2.686-1.576a8.995 8.995 0 014.706-2.908zM3.107 15.938c.067-.533 1.044-1.154 2.708-1.576.444 1.931 1.177 3.507 2.065 4.506a9.127 9.127 0 01-4.773-2.93zm9.035 2.908c.91-.977 1.643-2.575 2.086-4.529 1.62.4 2.598 1 2.775 1.51a9.1 9.1 0 01-4.861 3.019z"/></svg><svg viewBox="0 0 15 15" id="plus" xmlns="http://www.w3.org/2000/svg"><path d="M6 0h3v15H6z"/><path d="M0 9V6h15v3z"/></svg><svg viewBox="0 0 32 32" id="plus2" xmlns="http://www.w3.org/2000/svg"><circle cx="16" cy="16" r="15" fill="#fff" stroke="#010101" stroke-width="1.5"/><path d="M15.286 6.715h1.429v18.571h-1.429z"/><path d="M6.715 16.715v-1.43h18.571v1.43z"/></svg><svg viewBox="0 0 20 17" id="profit" xmlns="http://www.w3.org/2000/svg"><path fill-rule="evenodd" clip-rule="evenodd" d="M6.174 8.833a.546.546 0 01.046-.792.624.624 0 01.842.028l2.712 2.788V.555a.55.55 0 01.18-.393.622.622 0 01.422-.162c.158 0 .309.058.421.162a.55.55 0 01.18.393v10.302L13.69 8.07a.624.624 0 01.846-.031.546.546 0 01.041.796l-3.757 3.862a.633.633 0 01-.887 0L6.173 8.833zm13.224 1.307c-.159 0-.312.06-.425.165a.55.55 0 00-.176.4v5.164H1.203v-5.163a.55.55 0 00-.18-.393.622.622 0 00-.421-.162.622.622 0 00-.422.162.55.55 0 00-.18.393v5.727a.537.537 0 00.176.401A.606.606 0 00.6 17h18.797a.633.633 0 00.426-.165.538.538 0 00.176-.4v-5.73a.55.55 0 00-.176-.4.622.622 0 00-.426-.165z"/></svg><svg viewBox="0 0 30 30" id="question" xmlns="http://www.w3.org/2000/svg"><circle cx="15" cy="15" r="14" fill="#fff" stroke="#010101" stroke-width="2"/><path d="M13.782 17.805c0-.594.1-1.112.297-1.554.198-.442.442-.838.732-1.189.304-.35.632-.67.982-.96.351-.304.679-.601.983-.891.305-.305.549-.625.732-.96.198-.335.297-.724.297-1.166 0-.731-.29-1.325-.869-1.783-.579-.457-1.379-.685-2.4-.685-.914 0-1.706.152-2.377.457a4.596 4.596 0 00-1.714 1.348L8.776 9.234a6.38 6.38 0 012.446-1.874c.99-.458 2.149-.686 3.474-.686 1.098 0 2.05.167 2.857.503.808.32 1.433.784 1.875 1.394.457.594.685 1.318.685 2.171 0 .64-.098 1.189-.297 1.646-.198.457-.45.861-.754 1.212-.305.35-.632.678-.983.982-.335.305-.655.61-.96.915-.305.304-.556.64-.754 1.005-.198.366-.297.8-.297 1.303h-2.286zm1.166 5.189c-.427 0-.785-.145-1.075-.434a1.445 1.445 0 01-.41-1.029c0-.427.136-.777.41-1.051.29-.275.648-.412 1.075-.412.426 0 .777.137 1.051.412.274.274.412.624.412 1.051 0 .396-.138.739-.412 1.029-.274.29-.625.434-1.051.434z"/></svg><svg fill="none" viewBox="0 0 20 20" id="search" xmlns="http://www.w3.org/2000/svg"><path d="M13.57 12.552a7.545 7.545 0 001.764-4.868A7.558 7.558 0 0013.09 2.29 7.636 7.636 0 007.667.055 7.637 7.637 0 002.246 2.29 7.56 7.56 0 000 7.684a7.56 7.56 0 002.246 5.394 7.637 7.637 0 005.421 2.235c1.808 0 3.52-.62 4.892-1.757l6.222 6.191a.714.714 0 001.01 0 .708.708 0 000-1.005l-6.222-6.19zm-10.314-.479a6.151 6.151 0 01-1.827-4.389c0-1.658.649-3.217 1.827-4.389a6.215 6.215 0 014.411-1.818c1.666 0 3.233.646 4.412 1.818a6.15 6.15 0 011.827 4.39 6.15 6.15 0 01-1.827 4.388 6.215 6.215 0 01-4.412 1.819 6.216 6.216 0 01-4.411-1.819z" fill="#7C7C7C"/></svg><svg fill="none" viewBox="0 0 24 19" id="telegram" xmlns="http://www.w3.org/2000/svg"><path d="M23 1L1 9.684l8.105 1.158M23 1l-2.895 17.368-11-7.526M23 1L9.105 10.842m0 0v6.368l3.762-3.794"/></svg><svg viewBox="0 0 12 15" id="trash" xmlns="http://www.w3.org/2000/svg"><path d="M.889 13.93c0 .59.514 1.07 1.146 1.07H9.94c.632 0 1.146-.48 1.146-1.07V2.751H.89v11.18zm6.783-8.995c0-.175.164-.328.351-.328h.515c.187 0 .35.153.35.328v6.768c0 .175-.163.328-.35.328h-.515c-.187 0-.35-.153-.35-.328V4.935zm-2.292 0c0-.175.164-.328.35-.328h.515c.188 0 .351.153.351.328v6.768c0 .175-.163.328-.35.328H5.73c-.187 0-.351-.153-.351-.328V4.935zm-2.292 0c0-.175.163-.328.35-.328h.515c.187 0 .35.153.35.328v6.768c0 .175-.163.328-.35.328h-.515c-.187 0-.35-.153-.35-.328V4.935zM11.345.764H8V.677C8 .306 7.673 0 7.275 0h-2.55C4.327 0 4 .306 4 .677v.087H.655c-.35 0-.655.262-.655.612v.327c0 .328.28.611.655.611h10.667c.374 0 .678-.262.678-.61v-.328c0-.328-.28-.612-.655-.612z"/></svg><svg viewBox="0 0 25 22" id="turn" xmlns="http://www.w3.org/2000/svg"><path d="M18.75 0v3.125H3.125A3.134 3.134 0 000 6.25v3.125h3.125V6.25H18.75v3.125L25 4.687 18.75 0zM6.25 12.5L0 17.188l6.25 4.687V18.75h15.625A3.134 3.134 0 0025 15.625V12.5h-3.125v3.125H6.25V12.5z"/></svg><svg viewBox="0 0 15 15" id="user" xmlns="http://www.w3.org/2000/svg"><path d="M7.5 0C5.437 0 3.75 2.1 3.75 4.688c0 2.587 1.688 4.687 3.75 4.687 2.063 0 3.75-2.1 3.75-4.688C11.25 2.1 9.562 0 7.5 0zM3.581 9.375A3.754 3.754 0 000 13.125V15h15v-1.875a3.74 3.74 0 00-3.581-3.75c-1.013 1.144-2.4 1.875-3.919 1.875-1.519 0-2.906-.731-3.919-1.875z"/></svg><svg viewBox="0 0 30 28" id="user2" xmlns="http://www.w3.org/2000/svg"><path d="M0 15.378c0 4.768 2.108 9.189 5.784 12.128l.618.494.464-.647c1.896-2.647 4.937-4.227 8.134-4.227s6.237 1.58 8.135 4.227l.464.647.617-.494C27.892 24.566 30 20.146 30 15.378 30 6.898 23.27 0 15 0S0 6.899 0 15.378zM15 1.56c7.432 0 13.478 6.199 13.478 13.818 0 4.025-1.672 7.775-4.615 10.405-2.196-2.654-5.452-4.217-8.863-4.217-3.411 0-6.667 1.563-8.863 4.217-2.942-2.63-4.615-6.38-4.615-10.405C1.522 7.759 7.568 1.56 15 1.56z"/><path d="M15.001 19.947c3.288 0 5.962-2.742 5.962-6.112S18.289 7.723 15 7.723s-5.962 2.742-5.962 6.112 2.674 6.112 5.962 6.112zm0-10.664c2.449 0 4.44 2.042 4.44 4.552S17.45 18.387 15 18.387c-2.448 0-4.44-2.042-4.44-4.552s1.992-4.552 4.44-4.552z"/></svg></svg>