<?xml version="1.0" encoding="utf-8"?><svg viewBox="0 0 800 800" xmlns="http://www.w3.org/2000/svg" xmlns:xlink="http://www.w3.org/1999/xlink"><style>:root>svg{display:none}:root>svg:target{display:block}</style><svg viewBox="0 0 14 6" id="arrow" xmlns="http://www.w3.org/2000/svg"><path d="M7 6L.938 0h12.124L7 6z"/></svg><svg viewBox="0 0 80 71" id="attention" xmlns="http://www.w3.org/2000/svg"><path d="M39.686 60.327a4.042 4.042 0 100-8.084 4.042 4.042 0 000 8.084z"/><path fill-rule="evenodd" clip-rule="evenodd" d="M39.686 23.64c2.838 0 4.875 2.065 4.635 5.17l-1.239 18.026c-.177 2.28-1.817 3.188-3.396 3.188-1.573 0-3.214-.907-3.39-3.188L35.05 28.81c-.239-3.105 1.802-5.171 4.636-5.171z"/><path fill-rule="evenodd" clip-rule="evenodd" d="M39.68 7.957l32.526 56.796-65.036-.01L39.68 7.957zM38.774.166a2.644 2.644 0 00-1.354 1.16L.364 66.06c-1.026 1.77.239 3.99 2.271 3.979l74.119.006c2.016-.006 3.275-2.203 2.271-3.963L41.957 1.32A2.614 2.614 0 0038.774.166z"/></svg><svg viewBox="0 0 15 16" id="check" xmlns="http://www.w3.org/2000/svg"><path fill-rule="evenodd" clip-rule="evenodd" d="M2.436 7.937l2.882 3.457 8.422-10.37c.63-.7 1.621.047 1.126.84L6.579 14.992c-.63.84-1.486.934-2.207.093L.184 9.9c-.81-1.214 1.261-2.943 2.252-1.962z"/></svg><svg viewBox="0 0 22 20" id="check2" xmlns="http://www.w3.org/2000/svg"><path d="M2.938 20h12.96c1.62 0 2.938-1.383 2.938-3.082v-7.52c0-.431-.357-.806-.77-.806-.411 0-.768.346-.768.807v7.519c0 .806-.631 1.469-1.4 1.469H2.938c-.769 0-1.4-.663-1.4-1.47V3.32c0-.806.631-1.469 1.4-1.469h12.987c.412 0 .769-.346.769-.807 0-.46-.357-.806-.769-.806H2.938C1.318.238 0 1.62 0 3.32v13.598C0 18.618 1.318 20 2.938 20z"/><path d="M20.648.238L10.57 10.81 6.59 6.633c-.302-.317-.796-.317-1.071 0-.302.317-.302.835 0 1.124l4.53 4.753c.138.144.33.23.55.23a.85.85 0 00.549-.23L21.774 1.36c.302-.317.302-.835 0-1.123-.33-.317-.824-.317-1.126 0z"/></svg><svg viewBox="0 0 24 24" id="close" xmlns="http://www.w3.org/2000/svg"><path fill-rule="evenodd" clip-rule="evenodd" d="M19.207 6.207a1 1 0 00-1.414-1.414L12 10.586 6.207 4.793a1 1 0 00-1.414 1.414L10.586 12l-5.793 5.793a1 1 0 101.414 1.414L12 13.414l5.793 5.793a1 1 0 001.414-1.414L13.414 12l5.793-5.793z"/></svg><svg viewBox="0 0 30 31" id="exchange" xmlns="http://www.w3.org/2000/svg"><path d="M15 .205A15.013 15.013 0 002.904 6.31.648.648 0 003.54 7.33a.655.655 0 00.425-.262A13.672 13.672 0 0115 1.503c7.572 0 13.696 6.093 13.696 13.627 0 1.602-.307 3.117-.816 4.542H8.53l2.669-2.443a.648.648 0 00-.49-1.136.654.654 0 00-.386.173L6.41 19.835a.648.648 0 000 .963l3.913 3.569a.653.653 0 001.03-.76.65.65 0 00-.154-.203l-2.67-2.434h19.84a.654.654 0 00.612-.415A14.801 14.801 0 0030 15.13C30 6.895 23.276.205 15 .205zm4.209 5.506a.654.654 0 00-.591.43.646.646 0 00.183.705l2.67 2.444H1.569a.654.654 0 00-.55.405A14.856 14.856 0 000 15.13c0 8.235 6.723 14.925 15 14.925 4.961 0 9.367-2.417 12.096-6.114a.647.647 0 00-.38-1.013.657.657 0 00-.68.253c-2.494 3.377-6.498 5.576-11.036 5.576-7.572 0-13.696-6.093-13.696-13.627 0-1.598.309-3.12.816-4.542h19.35l-2.669 2.433a.648.648 0 00.406 1.13.655.655 0 00.47-.167l3.913-3.569a.647.647 0 000-.963l-3.913-3.569a.653.653 0 00-.468-.172z"/></svg><svg viewBox="0 0 35 19" id="menu" xmlns="http://www.w3.org/2000/svg"><path d="M0 0h35v3H0zM0 8h35v3H0zM0 16h35v3H0z"/></svg><svg viewBox="0 0 20 20" id="planet" xmlns="http://www.w3.org/2000/svg"><path d="M17.891 16.138a9.953 9.953 0 000-12.253.509.509 0 00-.155-.222 10 10 0 100 12.674.484.484 0 00.155-.2zm-3.507-2.664c.167-.998.264-2.007.288-3.019h4.395a9.132 9.132 0 01-1.509 4.617c-.555-.71-1.71-1.243-3.174-1.598zm-4.373 5.594c-1.288 0-2.664-1.887-3.352-4.906a19.019 19.019 0 013.396-.289c1.108 0 2.214.09 3.308.267-.71 3.04-2.087 4.928-3.352 4.928zm.044-6.082c-1.198 0-2.394.104-3.574.31a18.455 18.455 0 01-.266-2.84h7.57a18.427 18.427 0 01-.267 2.818 21.858 21.858 0 00-3.463-.288zm-7.57 2.153a8.932 8.932 0 01-1.553-4.684h4.395c.025 1.02.121 2.035.289 3.041-1.443.355-2.62.91-3.13 1.643zm3.13-8.59a21.752 21.752 0 00-.288 3.04H.932c.08-1.677.625-3.3 1.576-4.683.488.71 1.643 1.265 3.108 1.642zM10.012.91c1.287 0 2.664 1.91 3.352 4.972-1.092.19-2.2.278-3.308.267A18.826 18.826 0 016.66 5.86C7.325 2.82 8.723.91 10.01.91zm.044 6.127a22.372 22.372 0 003.485-.289c.161.932.25 1.874.267 2.82H6.215c.015-.953.104-1.903.266-2.842 1.179.218 2.376.322 3.574.31zm7.503-2.065a8.926 8.926 0 011.51 4.617h-4.396a18.582 18.582 0 00-.288-3.019c1.465-.355 2.641-.887 3.174-1.598zm-.577-.777c-.178.51-1.154 1.11-2.775 1.51-.421-1.931-1.132-3.507-1.998-4.506a8.961 8.961 0 014.773 2.996zM7.813 1.2c-.888.999-1.576 2.575-2.02 4.484-1.642-.422-2.62-1.044-2.686-1.576a8.995 8.995 0 014.706-2.908zM3.107 15.938c.067-.533 1.044-1.154 2.708-1.576.444 1.931 1.177 3.507 2.065 4.506a9.127 9.127 0 01-4.773-2.93zm9.035 2.908c.91-.977 1.643-2.575 2.086-4.529 1.62.4 2.598 1 2.775 1.51a9.1 9.1 0 01-4.861 3.019z"/></svg><svg viewBox="0 0 20 17" id="profit" xmlns="http://www.w3.org/2000/svg"><path fill-rule="evenodd" clip-rule="evenodd" d="M6.174 8.833a.546.546 0 01.046-.792.624.624 0 01.842.028l2.712 2.788V.555a.55.55 0 01.18-.393.622.622 0 01.422-.162c.158 0 .309.058.421.162a.55.55 0 01.18.393v10.302L13.69 8.07a.624.624 0 01.846-.031.546.546 0 01.041.796l-3.757 3.862a.633.633 0 01-.887 0L6.173 8.833zm13.224 1.307c-.159 0-.312.06-.425.165a.55.55 0 00-.176.4v5.164H1.203v-5.163a.55.55 0 00-.18-.393.622.622 0 00-.421-.162.622.622 0 00-.422.162.55.55 0 00-.18.393v5.727a.537.537 0 00.176.401A.606.606 0 00.6 17h18.797a.633.633 0 00.426-.165.538.538 0 00.176-.4v-5.73a.55.55 0 00-.176-.4.622.622 0 00-.426-.165z"/></svg><svg fill="none" viewBox="0 0 20 20" id="search" xmlns="http://www.w3.org/2000/svg"><path d="M13.57 12.552a7.545 7.545 0 001.764-4.868A7.558 7.558 0 0013.09 2.29 7.636 7.636 0 007.667.055 7.637 7.637 0 002.246 2.29 7.56 7.56 0 000 7.684a7.56 7.56 0 002.246 5.394 7.637 7.637 0 005.421 2.235c1.808 0 3.52-.62 4.892-1.757l6.222 6.191a.714.714 0 001.01 0 .708.708 0 000-1.005l-6.222-6.19zm-10.314-.479a6.151 6.151 0 01-1.827-4.389c0-1.658.649-3.217 1.827-4.389a6.215 6.215 0 014.411-1.818c1.666 0 3.233.646 4.412 1.818a6.15 6.15 0 011.827 4.39 6.15 6.15 0 01-1.827 4.388 6.215 6.215 0 01-4.412 1.819 6.216 6.216 0 01-4.411-1.819z" fill="#7C7C7C"/></svg></svg>