<?xml version="1.0" encoding="utf-8"?><svg viewBox="0 0 800 800" xmlns="http://www.w3.org/2000/svg" xmlns:xlink="http://www.w3.org/1999/xlink"><style>:root>svg{display:none}:root>svg:target{display:block}</style><svg viewBox="0 0 14 6" id="arrow" xmlns="http://www.w3.org/2000/svg"><path d="M7 6L.938 0h12.124L7 6z"/></svg><svg viewBox="0 0 80 71" id="attention" xmlns="http://www.w3.org/2000/svg"><path d="M39.686 60.327a4.042 4.042 0 100-8.084 4.042 4.042 0 000 8.084z"/><path fill-rule="evenodd" clip-rule="evenodd" d="M39.686 23.64c2.838 0 4.875 2.065 4.635 5.17l-1.239 18.026c-.177 2.28-1.817 3.188-3.396 3.188-1.573 0-3.214-.907-3.39-3.188L35.05 28.81c-.239-3.105 1.802-5.171 4.636-5.171z"/><path fill-rule="evenodd" clip-rule="evenodd" d="M39.68 7.957l32.526 56.796-65.036-.01L39.68 7.957zM38.774.166a2.644 2.644 0 00-1.354 1.16L.364 66.06c-1.026 1.77.239 3.99 2.271 3.979l74.119.006c2.016-.006 3.275-2.203 2.271-3.963L41.957 1.32A2.614 2.614 0 0038.774.166z"/></svg><svg viewBox="0 0 25 29" id="calendar" xmlns="http://www.w3.org/2000/svg"><path d="M.036 0v7.133H25V0H.036zm0 10.699v17.51a.32.32 0 00.32.322h24.287a.32.32 0 00.321-.321V10.699H0h.036zm3.566 3.566h3.566v3.567H3.602v-3.567zm7.133 0H14.3v3.567h-3.566v-3.567zm7.132 0h3.567v3.567h-3.567v-3.567zM3.602 21.398h3.566v3.566H3.602v-3.566zm7.133 0H14.3v3.566h-3.566v-3.566z"/></svg><svg viewBox="0 0 15 12" id="card" xmlns="http://www.w3.org/2000/svg"><path d="M.469 0A.464.464 0 000 .469v1.406h15V.469A.464.464 0 0014.531 0H.47zM0 3.75v7.031c0 .263.206.469.469.469H14.53a.464.464 0 00.469-.469V3.75H0zM1.875 7.5H3.75v1.875H1.875V7.5zm3.75 0H7.5v1.875H5.625V7.5z"/></svg><svg viewBox="0 0 15 16" id="check" xmlns="http://www.w3.org/2000/svg"><path fill-rule="evenodd" clip-rule="evenodd" d="M2.436 7.937l2.882 3.457 8.422-10.37c.63-.7 1.621.047 1.126.84L6.579 14.992c-.63.84-1.486.934-2.207.093L.184 9.9c-.81-1.214 1.261-2.943 2.252-1.962z"/></svg><svg viewBox="0 0 22 20" id="check2" xmlns="http://www.w3.org/2000/svg"><path d="M2.938 20h12.96c1.62 0 2.938-1.383 2.938-3.082v-7.52c0-.431-.357-.806-.77-.806-.411 0-.768.346-.768.807v7.519c0 .806-.631 1.469-1.4 1.469H2.938c-.769 0-1.4-.663-1.4-1.47V3.32c0-.806.631-1.469 1.4-1.469h12.987c.412 0 .769-.346.769-.807 0-.46-.357-.806-.769-.806H2.938C1.318.238 0 1.62 0 3.32v13.598C0 18.618 1.318 20 2.938 20z"/><path d="M20.648.238L10.57 10.81 6.59 6.633c-.302-.317-.796-.317-1.071 0-.302.317-.302.835 0 1.124l4.53 4.753c.138.144.33.23.55.23a.85.85 0 00.549-.23L21.774 1.36c.302-.317.302-.835 0-1.123-.33-.317-.824-.317-1.126 0z"/></svg><svg viewBox="0 0 18 18" id="clock" xmlns="http://www.w3.org/2000/svg"><path d="M9 0C4.05 0 0 4.05 0 9s4.05 9 9 9 9-4.05 9-9-4.05-9-9-9zm0 2.25A6.741 6.741 0 0115.75 9 6.741 6.741 0 019 15.75 6.741 6.741 0 012.25 9 6.741 6.741 0 019 2.25zM7.875 4.5v4.995l.36.293 1.125 1.124.765.855 1.62-1.62-.855-.764-.765-.765V4.544h-2.25V4.5z"/></svg><svg viewBox="0 0 15 15" id="clock2" xmlns="http://www.w3.org/2000/svg"><path d="M7.5 0C3.375 0 0 3.375 0 7.5S3.375 15 7.5 15 15 11.625 15 7.5 11.625 0 7.5 0zm0 1.875A5.617 5.617 0 0113.125 7.5 5.617 5.617 0 017.5 13.125 5.617 5.617 0 011.875 7.5 5.617 5.617 0 017.5 1.875zM6.562 3.75v4.162l.3.244.938.938.638.712 1.35-1.35-.713-.637-.637-.638V3.788H6.562V3.75z"/></svg><svg viewBox="0 0 24 24" id="close" xmlns="http://www.w3.org/2000/svg"><path fill-rule="evenodd" clip-rule="evenodd" d="M19.207 6.207a1 1 0 00-1.414-1.414L12 10.586 6.207 4.793a1 1 0 00-1.414 1.414L10.586 12l-5.793 5.793a1 1 0 101.414 1.414L12 13.414l5.793 5.793a1 1 0 001.414-1.414L13.414 12l5.793-5.793z"/></svg><svg viewBox="0 0 21 25" id="copy" xmlns="http://www.w3.org/2000/svg"><path d="M20.991 6.384a.74.74 0 00-.189-.46L15.381.208a.669.669 0 00-.438-.2C14.93.008 14.918 0 14.905 0H6.096a.66.66 0 00-.48.21.735.735 0 00-.198.504v5H.677a.66.66 0 00-.479.21.735.735 0 00-.198.505v17.857c0 .19.071.37.198.505.127.134.3.209.48.209h14.225a.66.66 0 00.48-.21.734.734 0 00.198-.504v-5h4.742a.66.66 0 00.479-.21.735.735 0 00.198-.505V6.43c0-.016-.008-.03-.009-.045zm-5.41-3.945l3.106 3.275h-3.106V2.44zM14.226 23.57H1.355V7.143h7.451v5c0 .19.072.371.199.505s.3.21.479.21h4.742V23.57zM10.16 8.153l3.107 3.276H10.16V8.153zm5.42 9.704v-5.714c0-.016-.008-.029-.009-.044a.74.74 0 00-.189-.46l-.001-.001-5.419-5.714-.001-.001a.67.67 0 00-.437-.2c-.014 0-.027-.009-.041-.009h-2.71V1.43h7.452v5c0 .189.071.37.198.505.127.134.3.209.48.209h4.741v10.714h-4.064z"/></svg><svg viewBox="0 0 15 18" id="doc" xmlns="http://www.w3.org/2000/svg"><path d="M0 0v17.143h15V8.57H6.429V0H0zm8.571 0v6.429H15L8.571 0zM2.143 4.286h2.143v2.143H2.143V4.286zm0 4.285h2.143v2.143H2.143V8.571zm0 4.286h8.571V15H2.143v-2.143z"/></svg><svg viewBox="0 0 20 32" id="dollar" xmlns="http://www.w3.org/2000/svg"><path d="M8.024 0v3.992H5.03c-2.715 0-4.99 2.275-4.99 4.99v1.996c0 2.715 1.756 4.95 4.351 5.629l10.22 2.634c.559.16 1.357 1.158 1.357 1.757v1.996c0 .559-.44.998-.998.998H4.99c-.479 0-.838-.16-.998-.24V20H0v3.992c0 1.357.798 2.515 1.756 3.114.919.638 2.076.878 3.234.878h2.994v3.992h3.992v-3.992h2.994a4.992 4.992 0 004.99-4.99v-1.996c0-2.715-1.756-4.95-4.351-5.629l-10.22-2.634c-.559-.16-1.357-1.158-1.357-1.757V8.982c0-.559.44-.998.998-.998h9.98c.44 0 .838.16.998.24v3.752H20V7.984c0-1.357-.798-2.515-1.756-3.114-.919-.638-2.076-.878-3.234-.878h-2.994V0H8.024z"/></svg><svg viewBox="0 0 30 31" id="exchange" xmlns="http://www.w3.org/2000/svg"><path d="M15 .205A15.013 15.013 0 002.904 6.31.648.648 0 003.54 7.33a.655.655 0 00.425-.262A13.672 13.672 0 0115 1.503c7.572 0 13.696 6.093 13.696 13.627 0 1.602-.307 3.117-.816 4.542H8.53l2.669-2.443a.648.648 0 00-.49-1.136.654.654 0 00-.386.173L6.41 19.835a.648.648 0 000 .963l3.913 3.569a.653.653 0 001.03-.76.65.65 0 00-.154-.203l-2.67-2.434h19.84a.654.654 0 00.612-.415A14.801 14.801 0 0030 15.13C30 6.895 23.276.205 15 .205zm4.209 5.506a.654.654 0 00-.591.43.646.646 0 00.183.705l2.67 2.444H1.569a.654.654 0 00-.55.405A14.856 14.856 0 000 15.13c0 8.235 6.723 14.925 15 14.925 4.961 0 9.367-2.417 12.096-6.114a.647.647 0 00-.38-1.013.657.657 0 00-.68.253c-2.494 3.377-6.498 5.576-11.036 5.576-7.572 0-13.696-6.093-13.696-13.627 0-1.598.309-3.12.816-4.542h19.35l-2.669 2.433a.648.648 0 00.406 1.13.655.655 0 00.47-.167l3.913-3.569a.647.647 0 000-.963l-3.913-3.569a.653.653 0 00-.468-.172z"/></svg><svg viewBox="0 0 15 14" id="exit" xmlns="http://www.w3.org/2000/svg"><path d="M9.375 0v1.875h-7.5v9.375h7.5v1.875H0V0h9.375zm1.875 3.75L15 6.563l-3.75 2.812V7.5h-7.5V5.625h7.5V3.75z"/></svg><svg viewBox="0 0 15 15" id="key" xmlns="http://www.w3.org/2000/svg"><path d="M10.313 0a4.69 4.69 0 00-4.688 4.688c0 .3 0 .6.056.88L0 11.25V15h5.625v-3.75h3.75V9.375l.056-.056c.282.056.582.056.882.056A4.69 4.69 0 0015 4.687 4.69 4.69 0 0010.312 0zm.937 1.875a1.88 1.88 0 011.875 1.875 1.88 1.88 0 01-1.875 1.875A1.88 1.88 0 019.375 3.75a1.88 1.88 0 011.875-1.875z"/></svg><svg viewBox="0 0 15 15" id="link" xmlns="http://www.w3.org/2000/svg"><path d="M11.024 0c-.338.019-.676.056-.996.17-.507.187-.996.47-1.41.883A.94.94 0 109.915 2.35c.207-.207.452-.32.715-.414.658-.225 1.466-.131 1.992.414.733.733.733 1.955 0 2.706l-2.82 2.82c-.826.827-1.503.902-1.992.883-.489-.018-.77-.244-.77-.244a.951.951 0 10-.94 1.654s.639.414 1.579.47c.94.056 2.255-.3 3.402-1.466l2.82-2.82c1.466-1.466 1.466-3.834 0-5.282a3.654 3.654 0 00-1.824-.996C11.74 0 11.363 0 11.024.02V0zM7.265 4.342c-.94-.037-2.237.282-3.346 1.41L1.1 8.572c-1.466 1.466-1.466 3.834 0 5.281a3.696 3.696 0 003.873.884c.507-.188.996-.47 1.41-.884a.94.94 0 10-1.297-1.297c-.207.207-.452.32-.715.414-.658.225-1.466.131-1.992-.414-.733-.733-.733-1.954 0-2.706l2.82-2.82c.751-.752 1.41-.846 1.935-.827.527.019.884.17.884.17a.94.94 0 10.827-1.655s-.64-.376-1.579-.413v.037z"/></svg><svg viewBox="0 0 12 15" id="lock" xmlns="http://www.w3.org/2000/svg"><path d="M5.625 0a3.761 3.761 0 00-3.75 3.75H3.75c0-1.05.825-1.875 1.875-1.875S7.5 2.7 7.5 3.75V7.5H0V15h11.25V7.5H9.375V3.75A3.761 3.761 0 005.625 0z"/></svg><svg viewBox="0 0 18 14" id="mail" xmlns="http://www.w3.org/2000/svg"><path d="M0 0v2.25l9 4.5 9-4.5V0H0zm0 4.5v9h18v-9L9 9 0 4.5z"/></svg><svg viewBox="0 0 35 19" id="menu" xmlns="http://www.w3.org/2000/svg"><path d="M0 0h35v3H0zM0 8h35v3H0zM0 16h35v3H0z"/></svg><svg viewBox="0 0 20 20" id="planet" xmlns="http://www.w3.org/2000/svg"><path d="M17.891 16.138a9.953 9.953 0 000-12.253.509.509 0 00-.155-.222 10 10 0 100 12.674.484.484 0 00.155-.2zm-3.507-2.664c.167-.998.264-2.007.288-3.019h4.395a9.132 9.132 0 01-1.509 4.617c-.555-.71-1.71-1.243-3.174-1.598zm-4.373 5.594c-1.288 0-2.664-1.887-3.352-4.906a19.019 19.019 0 013.396-.289c1.108 0 2.214.09 3.308.267-.71 3.04-2.087 4.928-3.352 4.928zm.044-6.082c-1.198 0-2.394.104-3.574.31a18.455 18.455 0 01-.266-2.84h7.57a18.427 18.427 0 01-.267 2.818 21.858 21.858 0 00-3.463-.288zm-7.57 2.153a8.932 8.932 0 01-1.553-4.684h4.395c.025 1.02.121 2.035.289 3.041-1.443.355-2.62.91-3.13 1.643zm3.13-8.59a21.752 21.752 0 00-.288 3.04H.932c.08-1.677.625-3.3 1.576-4.683.488.71 1.643 1.265 3.108 1.642zM10.012.91c1.287 0 2.664 1.91 3.352 4.972-1.092.19-2.2.278-3.308.267A18.826 18.826 0 016.66 5.86C7.325 2.82 8.723.91 10.01.91zm.044 6.127a22.372 22.372 0 003.485-.289c.161.932.25 1.874.267 2.82H6.215c.015-.953.104-1.903.266-2.842 1.179.218 2.376.322 3.574.31zm7.503-2.065a8.926 8.926 0 011.51 4.617h-4.396a18.582 18.582 0 00-.288-3.019c1.465-.355 2.641-.887 3.174-1.598zm-.577-.777c-.178.51-1.154 1.11-2.775 1.51-.421-1.931-1.132-3.507-1.998-4.506a8.961 8.961 0 014.773 2.996zM7.813 1.2c-.888.999-1.576 2.575-2.02 4.484-1.642-.422-2.62-1.044-2.686-1.576a8.995 8.995 0 014.706-2.908zM3.107 15.938c.067-.533 1.044-1.154 2.708-1.576.444 1.931 1.177 3.507 2.065 4.506a9.127 9.127 0 01-4.773-2.93zm9.035 2.908c.91-.977 1.643-2.575 2.086-4.529 1.62.4 2.598 1 2.775 1.51a9.1 9.1 0 01-4.861 3.019z"/></svg><svg viewBox="0 0 20 17" id="profit" xmlns="http://www.w3.org/2000/svg"><path fill-rule="evenodd" clip-rule="evenodd" d="M6.174 8.833a.546.546 0 01.046-.792.624.624 0 01.842.028l2.712 2.788V.555a.55.55 0 01.18-.393.622.622 0 01.422-.162c.158 0 .309.058.421.162a.55.55 0 01.18.393v10.302L13.69 8.07a.624.624 0 01.846-.031.546.546 0 01.041.796l-3.757 3.862a.633.633 0 01-.887 0L6.173 8.833zm13.224 1.307c-.159 0-.312.06-.425.165a.55.55 0 00-.176.4v5.164H1.203v-5.163a.55.55 0 00-.18-.393.622.622 0 00-.421-.162.622.622 0 00-.422.162.55.55 0 00-.18.393v5.727a.537.537 0 00.176.401A.606.606 0 00.6 17h18.797a.633.633 0 00.426-.165.538.538 0 00.176-.4v-5.73a.55.55 0 00-.176-.4.622.622 0 00-.426-.165z"/></svg><svg fill="none" viewBox="0 0 20 20" id="search" xmlns="http://www.w3.org/2000/svg"><path d="M13.57 12.552a7.545 7.545 0 001.764-4.868A7.558 7.558 0 0013.09 2.29 7.636 7.636 0 007.667.055 7.637 7.637 0 002.246 2.29 7.56 7.56 0 000 7.684a7.56 7.56 0 002.246 5.394 7.637 7.637 0 005.421 2.235c1.808 0 3.52-.62 4.892-1.757l6.222 6.191a.714.714 0 001.01 0 .708.708 0 000-1.005l-6.222-6.19zm-10.314-.479a6.151 6.151 0 01-1.827-4.389c0-1.658.649-3.217 1.827-4.389a6.215 6.215 0 014.411-1.818c1.666 0 3.233.646 4.412 1.818a6.15 6.15 0 011.827 4.39 6.15 6.15 0 01-1.827 4.388 6.215 6.215 0 01-4.412 1.819 6.216 6.216 0 01-4.411-1.819z" fill="#7C7C7C"/></svg><svg fill="none" viewBox="0 0 24 19" id="telegram" xmlns="http://www.w3.org/2000/svg"><path d="M23 1L1 9.684l8.105 1.158M23 1l-2.895 17.368-11-7.526M23 1L9.105 10.842m0 0v6.368l3.762-3.794"/></svg><svg viewBox="0 0 25 22" id="turn" xmlns="http://www.w3.org/2000/svg"><path d="M18.75 0v3.125H3.125A3.134 3.134 0 000 6.25v3.125h3.125V6.25H18.75v3.125L25 4.687 18.75 0zM6.25 12.5L0 17.188l6.25 4.687V18.75h15.625A3.134 3.134 0 0025 15.625V12.5h-3.125v3.125H6.25V12.5z"/></svg><svg viewBox="0 0 15 15" id="user" xmlns="http://www.w3.org/2000/svg"><path d="M7.5 0C5.437 0 3.75 2.1 3.75 4.688c0 2.587 1.688 4.687 3.75 4.687 2.063 0 3.75-2.1 3.75-4.688C11.25 2.1 9.562 0 7.5 0zM3.581 9.375A3.754 3.754 0 000 13.125V15h15v-1.875a3.74 3.74 0 00-3.581-3.75c-1.013 1.144-2.4 1.875-3.919 1.875-1.519 0-2.906-.731-3.919-1.875z"/></svg></svg>