<svg width="400" height="10" viewBox="0 0 400 10" fill="none" xmlns="http://www.w3.org/2000/svg">
<rect x="211.477" y="-20" width="10" height="53" transform="rotate(45 211.477 -20)" fill="#FAB400"/>
<rect x="99.4766" y="-20" width="10" height="53" transform="rotate(45 99.4766 -20)" fill="#FAB400"/>
<rect x="323.477" y="-20" width="10" height="53" transform="rotate(45 323.477 -20)" fill="#FAB400"/>
<rect x="43.4766" y="-20" width="10" height="53" transform="rotate(45 43.4766 -20)" fill="#FAB400"/>
<rect x="267.477" y="-20" width="10" height="53" transform="rotate(45 267.477 -20)" fill="#FAB400"/>
<rect x="155.477" y="-20" width="10" height="53" transform="rotate(45 155.477 -20)" fill="#FAB400"/>
<rect x="379.477" y="-20" width="10" height="53" transform="rotate(45 379.477 -20)" fill="#FAB400"/>
<rect x="15.4766" y="-20" width="10" height="53" transform="rotate(45 15.4766 -20)" fill="#FAB400"/>
<rect x="239.477" y="-20" width="10" height="53" transform="rotate(45 239.477 -20)" fill="#FAB400"/>
<rect x="127.477" y="-20" width="10" height="53" transform="rotate(45 127.477 -20)" fill="#FAB400"/>
<rect x="351.477" y="-20" width="10" height="53" transform="rotate(45 351.477 -20)" fill="#FAB400"/>
<rect x="71.4766" y="-20" width="10" height="53" transform="rotate(45 71.4766 -20)" fill="#FAB400"/>
<rect x="295.477" y="-20" width="10" height="53" transform="rotate(45 295.477 -20)" fill="#FAB400"/>
<rect x="183.477" y="-20" width="10" height="53" transform="rotate(45 183.477 -20)" fill="#FAB400"/>
<rect x="407.477" y="-20" width="10" height="53" transform="rotate(45 407.477 -20)" fill="#FAB400"/>
<rect x="1.47656" y="-20" width="10" height="53" transform="rotate(45 1.47656 -20)" fill="#FFDD87"/>
<rect x="225.477" y="-20" width="10" height="53" transform="rotate(45 225.477 -20)" fill="#FFDD87"/>
<rect x="113.477" y="-20" width="10" height="53" transform="rotate(45 113.477 -20)" fill="#FFDD87"/>
<rect x="337.477" y="-20" width="10" height="53" transform="rotate(45 337.477 -20)" fill="#FFDD87"/>
<rect x="57.4766" y="-20" width="10" height="53" transform="rotate(45 57.4766 -20)" fill="#FFDD87"/>
<rect x="281.477" y="-20" width="10" height="53" transform="rotate(45 281.477 -20)" fill="#FFDD87"/>
<rect x="169.477" y="-20" width="10" height="53" transform="rotate(45 169.477 -20)" fill="#FFDD87"/>
<rect x="393.477" y="-20" width="10" height="53" transform="rotate(45 393.477 -20)" fill="#FFDD87"/>
<rect x="29.4766" y="-20" width="10" height="53" transform="rotate(45 29.4766 -20)" fill="#FFDD87"/>
<rect x="253.477" y="-20" width="10" height="53" transform="rotate(45 253.477 -20)" fill="#FFDD87"/>
<rect x="141.477" y="-20" width="10" height="53" transform="rotate(45 141.477 -20)" fill="#FFDD87"/>
<rect x="365.477" y="-20" width="10" height="53" transform="rotate(45 365.477 -20)" fill="#FFDD87"/>
<rect x="85.4766" y="-20" width="10" height="53" transform="rotate(45 85.4766 -20)" fill="#FFDD87"/>
<rect x="309.477" y="-20" width="10" height="53" transform="rotate(45 309.477 -20)" fill="#FFDD87"/>
<rect x="197.477" y="-20" width="10" height="53" transform="rotate(45 197.477 -20)" fill="#FFDD87"/>
<rect x="421.477" y="-20" width="10" height="53" transform="rotate(45 421.477 -20)" fill="#FFDD87"/>
</svg>
