<svg width="170" height="170" viewBox="0 0 170 170" fill="none" xmlns="http://www.w3.org/2000/svg">
<path d="M6.8 0H0V6.8H6.8V0Z" fill="black"/>
<path d="M13.6 0H6.8V6.8H13.6V0Z" fill="black"/>
<path d="M20.4 0H13.6V6.8H20.4V0Z" fill="black"/>
<path d="M27.2 0H20.4V6.8H27.2V0Z" fill="black"/>
<path d="M34 0H27.2V6.8H34V0Z" fill="black"/>
<path d="M40.8 0H34V6.8H40.8V0Z" fill="black"/>
<path d="M47.6 0H40.8V6.8H47.6V0Z" fill="black"/>
<path d="M61.2 0H54.4V6.8H61.2V0Z" fill="black"/>
<path d="M81.6 0H74.8V6.8H81.6V0Z" fill="black"/>
<path d="M88.4 0H81.6V6.8H88.4V0Z" fill="black"/>
<path d="M108.8 0H102V6.8H108.8V0Z" fill="black"/>
<path d="M129.2 0H122.4V6.8H129.2V0Z" fill="black"/>
<path d="M136 0H129.2V6.8H136V0Z" fill="black"/>
<path d="M142.8 0H136V6.8H142.8V0Z" fill="black"/>
<path d="M149.6 0H142.8V6.8H149.6V0Z" fill="black"/>
<path d="M156.4 0H149.6V6.8H156.4V0Z" fill="black"/>
<path d="M163.2 0H156.4V6.8H163.2V0Z" fill="black"/>
<path d="M170 0H163.2V6.8H170V0Z" fill="black"/>
<path d="M6.8 6.8H0V13.6H6.8V6.8Z" fill="black"/>
<path d="M47.6 6.8H40.8V13.6H47.6V6.8Z" fill="black"/>
<path d="M74.8 6.8H68V13.6H74.8V6.8Z" fill="black"/>
<path d="M95.2 6.8H88.4V13.6H95.2V6.8Z" fill="black"/>
<path d="M102 6.8H95.2V13.6H102L102 6.8Z" fill="black"/>
<path d="M129.2 6.8H122.4V13.6H129.2V6.8Z" fill="black"/>
<path d="M170 6.8H163.2V13.6H170V6.8Z" fill="black"/>
<path d="M6.8 13.6H0V20.4H6.8V13.6Z" fill="black"/>
<path d="M20.4 13.6H13.6V20.4H20.4V13.6Z" fill="black"/>
<path d="M27.2 13.6H20.4V20.4H27.2V13.6Z" fill="black"/>
<path d="M34 13.6H27.2V20.4H34V13.6Z" fill="black"/>
<path d="M47.6 13.6H40.8V20.4H47.6V13.6Z" fill="black"/>
<path d="M61.2 13.6H54.4V20.4H61.2V13.6Z" fill="black"/>
<path d="M68 13.6H61.2V20.4H68V13.6Z" fill="black"/>
<path d="M95.2 13.6H88.4V20.4H95.2V13.6Z" fill="black"/>
<path d="M115.6 13.6H108.8V20.4H115.6V13.6Z" fill="black"/>
<path d="M129.2 13.6H122.4V20.4H129.2V13.6Z" fill="black"/>
<path d="M142.8 13.6H136V20.4H142.8V13.6Z" fill="black"/>
<path d="M149.6 13.6H142.8V20.4H149.6V13.6Z" fill="black"/>
<path d="M156.4 13.6H149.6V20.4H156.4V13.6Z" fill="black"/>
<path d="M170 13.6H163.2V20.4H170V13.6Z" fill="black"/>
<path d="M6.8 20.4H0V27.2H6.8V20.4Z" fill="black"/>
<path d="M20.4 20.4H13.6V27.2H20.4V20.4Z" fill="black"/>
<path d="M27.2 20.4H20.4V27.2H27.2V20.4Z" fill="black"/>
<path d="M34 20.4H27.2V27.2H34V20.4Z" fill="black"/>
<path d="M47.6 20.4H40.8V27.2H47.6V20.4Z" fill="black"/>
<path d="M61.2 20.4H54.4V27.2H61.2V20.4Z" fill="black"/>
<path d="M68 20.4H61.2V27.2H68V20.4Z" fill="black"/>
<path d="M74.8 20.4H68V27.2H74.8V20.4Z" fill="black"/>
<path d="M81.6 20.4H74.8V27.2H81.6V20.4Z" fill="black"/>
<path d="M88.4 20.4H81.6V27.2H88.4V20.4Z" fill="black"/>
<path d="M129.2 20.4H122.4V27.2H129.2V20.4Z" fill="black"/>
<path d="M142.8 20.4H136V27.2H142.8V20.4Z" fill="black"/>
<path d="M149.6 20.4H142.8V27.2H149.6V20.4Z" fill="black"/>
<path d="M156.4 20.4H149.6V27.2H156.4V20.4Z" fill="black"/>
<path d="M170 20.4H163.2V27.2H170V20.4Z" fill="black"/>
<path d="M6.8 27.2H0V34H6.8V27.2Z" fill="black"/>
<path d="M20.4 27.2H13.6V34H20.4V27.2Z" fill="black"/>
<path d="M27.2 27.2H20.4V34H27.2V27.2Z" fill="black"/>
<path d="M34 27.2H27.2V34H34V27.2Z" fill="black"/>
<path d="M47.6 27.2H40.8V34H47.6V27.2Z" fill="black"/>
<path d="M74.8 27.2H68V34H74.8V27.2Z" fill="black"/>
<path d="M95.2 27.2H88.4V34H95.2V27.2Z" fill="black"/>
<path d="M102 27.2H95.2V34H102V27.2Z" fill="black"/>
<path d="M108.8 27.2H102V34H108.8V27.2Z" fill="black"/>
<path d="M115.6 27.2H108.8V34H115.6V27.2Z" fill="black"/>
<path d="M129.2 27.2H122.4V34H129.2V27.2Z" fill="black"/>
<path d="M142.8 27.2H136V34H142.8V27.2Z" fill="black"/>
<path d="M149.6 27.2H142.8V34H149.6V27.2Z" fill="black"/>
<path d="M156.4 27.2H149.6V34H156.4V27.2Z" fill="black"/>
<path d="M170 27.2H163.2V34H170V27.2Z" fill="black"/>
<path d="M6.8 34H0V40.8H6.8V34Z" fill="black"/>
<path d="M47.6 34H40.8V40.8H47.6V34Z" fill="black"/>
<path d="M61.2 34H54.4V40.8H61.2V34Z" fill="black"/>
<path d="M68 34H61.2V40.8H68V34Z" fill="black"/>
<path d="M88.4 34H81.6V40.8H88.4V34Z" fill="black"/>
<path d="M108.8 34H102L102 40.8H108.8V34Z" fill="black"/>
<path d="M129.2 34H122.4V40.8H129.2V34Z" fill="black"/>
<path d="M170 34H163.2V40.8H170V34Z" fill="black"/>
<path d="M6.8 40.8H0V47.6H6.8V40.8Z" fill="black"/>
<path d="M13.6 40.8H6.8V47.6H13.6V40.8Z" fill="black"/>
<path d="M20.4 40.8H13.6V47.6H20.4V40.8Z" fill="black"/>
<path d="M27.2 40.8H20.4V47.6H27.2V40.8Z" fill="black"/>
<path d="M34 40.8H27.2V47.6H34V40.8Z" fill="black"/>
<path d="M40.8 40.8H34V47.6H40.8V40.8Z" fill="black"/>
<path d="M47.6 40.8H40.8V47.6H47.6V40.8Z" fill="black"/>
<path d="M61.2 40.8H54.4V47.6H61.2V40.8Z" fill="black"/>
<path d="M74.8 40.8H68V47.6H74.8V40.8Z" fill="black"/>
<path d="M88.4 40.8H81.6V47.6H88.4V40.8Z" fill="black"/>
<path d="M102 40.8H95.2V47.6H102L102 40.8Z" fill="black"/>
<path d="M115.6 40.8H108.8V47.6H115.6V40.8Z" fill="black"/>
<path d="M129.2 40.8H122.4V47.6H129.2V40.8Z" fill="black"/>
<path d="M136 40.8H129.2V47.6H136V40.8Z" fill="black"/>
<path d="M142.8 40.8H136V47.6H142.8V40.8Z" fill="black"/>
<path d="M149.6 40.8H142.8V47.6H149.6V40.8Z" fill="black"/>
<path d="M156.4 40.8H149.6V47.6H156.4V40.8Z" fill="black"/>
<path d="M163.2 40.8H156.4V47.6H163.2V40.8Z" fill="black"/>
<path d="M170 40.8H163.2V47.6H170V40.8Z" fill="black"/>
<path d="M61.2 47.6H54.4V54.4H61.2V47.6Z" fill="black"/>
<path d="M81.6 47.6H74.8V54.4H81.6V47.6Z" fill="black"/>
<path d="M95.2 47.6H88.4V54.4H95.2V47.6Z" fill="black"/>
<path d="M102 47.6H95.2V54.4H102V47.6Z" fill="black"/>
<path d="M6.8 54.4H0V61.2H6.8V54.4Z" fill="black"/>
<path d="M13.6 54.4H6.8V61.2H13.6V54.4Z" fill="black"/>
<path d="M27.2 54.4H20.4V61.2H27.2V54.4Z" fill="black"/>
<path d="M47.6 54.4H40.8V61.2H47.6V54.4Z" fill="black"/>
<path d="M54.4 54.4H47.6V61.2H54.4V54.4Z" fill="black"/>
<path d="M81.6 54.4H74.8V61.2H81.6V54.4Z" fill="black"/>
<path d="M88.4 54.4H81.6V61.2H88.4V54.4Z" fill="black"/>
<path d="M95.2 54.4H88.4V61.2H95.2V54.4Z" fill="black"/>
<path d="M108.8 54.4H102L102 61.2H108.8V54.4Z" fill="black"/>
<path d="M115.6 54.4H108.8V61.2H115.6V54.4Z" fill="black"/>
<path d="M122.4 54.4H115.6V61.2H122.4V54.4Z" fill="black"/>
<path d="M129.2 54.4H122.4V61.2H129.2V54.4Z" fill="black"/>
<path d="M136 54.4H129.2V61.2H136V54.4Z" fill="black"/>
<path d="M149.6 54.4H142.8V61.2H149.6V54.4Z" fill="black"/>
<path d="M156.4 54.4H149.6V61.2H156.4V54.4Z" fill="black"/>
<path d="M170 54.4H163.2V61.2H170V54.4Z" fill="black"/>
<path d="M6.8 61.2H0V68H6.8V61.2Z" fill="black"/>
<path d="M13.6 61.2H6.8V68H13.6V61.2Z" fill="black"/>
<path d="M27.2 61.2H20.4V68H27.2V61.2Z" fill="black"/>
<path d="M34 61.2H27.2V68H34V61.2Z" fill="black"/>
<path d="M40.8 61.2H34V68H40.8V61.2Z" fill="black"/>
<path d="M54.4 61.2H47.6V68H54.4V61.2Z" fill="black"/>
<path d="M68 61.2H61.2V68H68V61.2Z" fill="black"/>
<path d="M81.6 61.2H74.8V68H81.6V61.2Z" fill="black"/>
<path d="M102 61.2H95.2V68H102L102 61.2Z" fill="black"/>
<path d="M115.6 61.2H108.8V68H115.6V61.2Z" fill="black"/>
<path d="M129.2 61.2H122.4V68H129.2V61.2Z" fill="black"/>
<path d="M136 61.2H129.2V68H136V61.2Z" fill="black"/>
<path d="M156.4 61.2H149.6V68H156.4V61.2Z" fill="black"/>
<path d="M13.6 68H6.8V74.8H13.6V68Z" fill="black"/>
<path d="M20.4 68H13.6V74.8H20.4V68Z" fill="black"/>
<path d="M47.6 68H40.8V74.8H47.6V68Z" fill="black"/>
<path d="M54.4 68H47.6V74.8H54.4V68Z" fill="black"/>
<path d="M68 68H61.2V74.8H68V68Z" fill="black"/>
<path d="M74.8 68H68V74.8H74.8V68Z" fill="black"/>
<path d="M88.4 68H81.6V74.8H88.4V68Z" fill="black"/>
<path d="M102 68H95.2V74.8H102V68Z" fill="black"/>
<path d="M108.8 68H102V74.8H108.8V68Z" fill="black"/>
<path d="M129.2 68H122.4V74.8H129.2V68Z" fill="black"/>
<path d="M142.8 68H136V74.8H142.8V68Z" fill="black"/>
<path d="M163.2 68H156.4V74.8H163.2V68Z" fill="black"/>
<path d="M6.8 74.8H0V81.6H6.8V74.8Z" fill="black"/>
<path d="M13.6 74.8H6.8V81.6H13.6V74.8Z" fill="black"/>
<path d="M20.4 74.8H13.6V81.6H20.4V74.8Z" fill="black"/>
<path d="M27.2 74.8H20.4V81.6H27.2V74.8Z" fill="black"/>
<path d="M54.4 74.8H47.6V81.6H54.4V74.8Z" fill="black"/>
<path d="M61.2 74.8H54.4V81.6H61.2V74.8Z" fill="black"/>
<path d="M74.8 74.8H68V81.6H74.8V74.8Z" fill="black"/>
<path d="M88.4 74.8H81.6V81.6H88.4V74.8Z" fill="black"/>
<path d="M95.2 74.8H88.4V81.6H95.2V74.8Z" fill="black"/>
<path d="M115.6 74.8H108.8V81.6H115.6V74.8Z" fill="black"/>
<path d="M129.2 74.8H122.4V81.6H129.2V74.8Z" fill="black"/>
<path d="M142.8 74.8H136V81.6H142.8V74.8Z" fill="black"/>
<path d="M156.4 74.8H149.6V81.6H156.4V74.8Z" fill="black"/>
<path d="M20.4 81.6H13.6V88.4H20.4V81.6Z" fill="black"/>
<path d="M27.2 81.6H20.4V88.4H27.2V81.6Z" fill="black"/>
<path d="M40.8 81.6H34V88.4H40.8V81.6Z" fill="black"/>
<path d="M47.6 81.6H40.8V88.4H47.6V81.6Z" fill="black"/>
<path d="M54.4 81.6H47.6V88.4H54.4V81.6Z" fill="black"/>
<path d="M61.2 81.6H54.4V88.4H61.2V81.6Z" fill="black"/>
<path d="M102 81.6H95.2V88.4H102V81.6Z" fill="black"/>
<path d="M108.8 81.6H102V88.4H108.8V81.6Z" fill="black"/>
<path d="M122.4 81.6H115.6V88.4H122.4V81.6Z" fill="black"/>
<path d="M129.2 81.6H122.4V88.4H129.2V81.6Z" fill="black"/>
<path d="M136 81.6H129.2V88.4H136V81.6Z" fill="black"/>
<path d="M142.8 81.6H136V88.4H142.8V81.6Z" fill="black"/>
<path d="M149.6 81.6H142.8V88.4H149.6V81.6Z" fill="black"/>
<path d="M156.4 81.6H149.6V88.4H156.4V81.6Z" fill="black"/>
<path d="M170 81.6H163.2V88.4H170V81.6Z" fill="black"/>
<path d="M6.8 88.4H0V95.2H6.8V88.4Z" fill="black"/>
<path d="M20.4 88.4H13.6V95.2H20.4V88.4Z" fill="black"/>
<path d="M34 88.4H27.2V95.2H34V88.4Z" fill="black"/>
<path d="M54.4 88.4H47.6V95.2H54.4V88.4Z" fill="black"/>
<path d="M61.2 88.4H54.4V95.2H61.2V88.4Z" fill="black"/>
<path d="M81.6 88.4H74.8V95.2H81.6V88.4Z" fill="black"/>
<path d="M95.2 88.4H88.4V95.2H95.2V88.4Z" fill="black"/>
<path d="M108.8 88.4H102L102 95.2H108.8V88.4Z" fill="black"/>
<path d="M122.4 88.4H115.6V95.2H122.4V88.4Z" fill="black"/>
<path d="M142.8 88.4H136V95.2H142.8V88.4Z" fill="black"/>
<path d="M149.6 88.4H142.8V95.2H149.6V88.4Z" fill="black"/>
<path d="M156.4 88.4H149.6V95.2H156.4V88.4Z" fill="black"/>
<path d="M6.8 95.2H0V102H6.8V95.2Z" fill="black"/>
<path d="M13.6 95.2H6.8V102H13.6V95.2Z" fill="black"/>
<path d="M34 95.2H27.2V102H34V95.2Z" fill="black"/>
<path d="M40.8 95.2H34V102H40.8V95.2Z" fill="black"/>
<path d="M47.6 95.2H40.8V102H47.6V95.2Z" fill="black"/>
<path d="M54.4 95.2H47.6V102H54.4V95.2Z" fill="black"/>
<path d="M61.2 95.2H54.4V102H61.2V95.2Z" fill="black"/>
<path d="M74.8 95.2H68V102H74.8V95.2Z" fill="black"/>
<path d="M81.6 95.2H74.8V102H81.6V95.2Z" fill="black"/>
<path d="M102 95.2H95.2V102H102L102 95.2Z" fill="black"/>
<path d="M149.6 95.2H142.8V102H149.6V95.2Z" fill="black"/>
<path d="M170 95.2H163.2V102H170V95.2Z" fill="black"/>
<path d="M27.2 102L20.4 102V108.8H27.2V102Z" fill="black"/>
<path d="M34 102H27.2V108.8H34V102Z" fill="black"/>
<path d="M95.2 102L88.4 102V108.8H95.2V102Z" fill="black"/>
<path d="M115.6 102H108.8V108.8H115.6V102Z" fill="black"/>
<path d="M136 102H129.2V108.8H136V102Z" fill="black"/>
<path d="M156.4 102L149.6 102V108.8H156.4V102Z" fill="black"/>
<path d="M6.8 108.8H0V115.6H6.8V108.8Z" fill="black"/>
<path d="M13.6 108.8H6.8V115.6H13.6V108.8Z" fill="black"/>
<path d="M34 108.8H27.2V115.6H34V108.8Z" fill="black"/>
<path d="M40.8 108.8H34V115.6H40.8V108.8Z" fill="black"/>
<path d="M47.6 108.8H40.8V115.6H47.6V108.8Z" fill="black"/>
<path d="M54.4 108.8H47.6V115.6H54.4V108.8Z" fill="black"/>
<path d="M61.2 108.8H54.4V115.6H61.2V108.8Z" fill="black"/>
<path d="M68 108.8H61.2V115.6H68V108.8Z" fill="black"/>
<path d="M95.2 108.8H88.4V115.6H95.2V108.8Z" fill="black"/>
<path d="M108.8 108.8H102V115.6H108.8V108.8Z" fill="black"/>
<path d="M115.6 108.8H108.8V115.6H115.6V108.8Z" fill="black"/>
<path d="M122.4 108.8H115.6V115.6H122.4V108.8Z" fill="black"/>
<path d="M129.2 108.8H122.4V115.6H129.2V108.8Z" fill="black"/>
<path d="M136 108.8H129.2V115.6H136V108.8Z" fill="black"/>
<path d="M142.8 108.8H136V115.6H142.8V108.8Z" fill="black"/>
<path d="M149.6 108.8H142.8V115.6H149.6V108.8Z" fill="black"/>
<path d="M81.6 115.6H74.8V122.4H81.6V115.6Z" fill="black"/>
<path d="M88.4 115.6H81.6V122.4H88.4V115.6Z" fill="black"/>
<path d="M115.6 115.6H108.8V122.4H115.6V115.6Z" fill="black"/>
<path d="M142.8 115.6H136V122.4H142.8V115.6Z" fill="black"/>
<path d="M156.4 115.6H149.6V122.4H156.4V115.6Z" fill="black"/>
<path d="M6.8 122.4H0V129.2H6.8V122.4Z" fill="black"/>
<path d="M13.6 122.4H6.8V129.2H13.6V122.4Z" fill="black"/>
<path d="M20.4 122.4H13.6V129.2H20.4V122.4Z" fill="black"/>
<path d="M27.2 122.4H20.4V129.2H27.2V122.4Z" fill="black"/>
<path d="M34 122.4H27.2V129.2H34V122.4Z" fill="black"/>
<path d="M40.8 122.4H34V129.2H40.8V122.4Z" fill="black"/>
<path d="M47.6 122.4H40.8V129.2H47.6V122.4Z" fill="black"/>
<path d="M61.2 122.4H54.4V129.2H61.2V122.4Z" fill="black"/>
<path d="M74.8 122.4H68V129.2H74.8V122.4Z" fill="black"/>
<path d="M81.6 122.4H74.8V129.2H81.6V122.4Z" fill="black"/>
<path d="M88.4 122.4H81.6V129.2H88.4V122.4Z" fill="black"/>
<path d="M95.2 122.4H88.4V129.2H95.2V122.4Z" fill="black"/>
<path d="M115.6 122.4H108.8V129.2H115.6V122.4Z" fill="black"/>
<path d="M129.2 122.4H122.4V129.2H129.2V122.4Z" fill="black"/>
<path d="M142.8 122.4H136V129.2H142.8V122.4Z" fill="black"/>
<path d="M149.6 122.4H142.8V129.2H149.6V122.4Z" fill="black"/>
<path d="M156.4 122.4H149.6V129.2H156.4V122.4Z" fill="black"/>
<path d="M170 122.4H163.2V129.2H170V122.4Z" fill="black"/>
<path d="M6.8 129.2H0V136H6.8V129.2Z" fill="black"/>
<path d="M47.6 129.2H40.8V136H47.6V129.2Z" fill="black"/>
<path d="M68 129.2H61.2V136H68V129.2Z" fill="black"/>
<path d="M95.2 129.2H88.4V136H95.2V129.2Z" fill="black"/>
<path d="M102 129.2H95.2V136H102V129.2Z" fill="black"/>
<path d="M115.6 129.2H108.8V136H115.6V129.2Z" fill="black"/>
<path d="M142.8 129.2H136V136H142.8V129.2Z" fill="black"/>
<path d="M170 129.2H163.2V136H170V129.2Z" fill="black"/>
<path d="M6.8 136H0V142.8H6.8V136Z" fill="black"/>
<path d="M20.4 136H13.6V142.8H20.4V136Z" fill="black"/>
<path d="M27.2 136H20.4V142.8H27.2V136Z" fill="black"/>
<path d="M34 136H27.2V142.8H34V136Z" fill="black"/>
<path d="M47.6 136H40.8V142.8H47.6V136Z" fill="black"/>
<path d="M88.4 136H81.6V142.8H88.4V136Z" fill="black"/>
<path d="M95.2 136H88.4V142.8H95.2V136Z" fill="black"/>
<path d="M115.6 136H108.8V142.8H115.6V136Z" fill="black"/>
<path d="M122.4 136H115.6V142.8H122.4V136Z" fill="black"/>
<path d="M129.2 136H122.4V142.8H129.2V136Z" fill="black"/>
<path d="M136 136H129.2V142.8H136V136Z" fill="black"/>
<path d="M142.8 136H136V142.8H142.8V136Z" fill="black"/>
<path d="M149.6 136H142.8V142.8H149.6V136Z" fill="black"/>
<path d="M156.4 136H149.6V142.8H156.4V136Z" fill="black"/>
<path d="M6.8 142.8H0V149.6H6.8V142.8Z" fill="black"/>
<path d="M20.4 142.8H13.6V149.6H20.4V142.8Z" fill="black"/>
<path d="M27.2 142.8H20.4V149.6H27.2V142.8Z" fill="black"/>
<path d="M34 142.8H27.2V149.6H34V142.8Z" fill="black"/>
<path d="M47.6 142.8H40.8V149.6H47.6V142.8Z" fill="black"/>
<path d="M61.2 142.8H54.4V149.6H61.2V142.8Z" fill="black"/>
<path d="M68 142.8H61.2V149.6H68V142.8Z" fill="black"/>
<path d="M74.8 142.8H68V149.6H74.8V142.8Z" fill="black"/>
<path d="M81.6 142.8H74.8V149.6H81.6V142.8Z" fill="black"/>
<path d="M88.4 142.8H81.6V149.6H88.4V142.8Z" fill="black"/>
<path d="M95.2 142.8H88.4V149.6H95.2V142.8Z" fill="black"/>
<path d="M102 142.8H95.2V149.6H102V142.8Z" fill="black"/>
<path d="M115.6 142.8H108.8V149.6H115.6V142.8Z" fill="black"/>
<path d="M129.2 142.8H122.4V149.6H129.2V142.8Z" fill="black"/>
<path d="M136 142.8H129.2V149.6H136V142.8Z" fill="black"/>
<path d="M163.2 142.8H156.4V149.6H163.2V142.8Z" fill="black"/>
<path d="M170 142.8H163.2V149.6H170V142.8Z" fill="black"/>
<path d="M6.8 149.6H0V156.4H6.8V149.6Z" fill="black"/>
<path d="M20.4 149.6H13.6V156.4H20.4V149.6Z" fill="black"/>
<path d="M27.2 149.6H20.4V156.4H27.2V149.6Z" fill="black"/>
<path d="M34 149.6H27.2V156.4H34V149.6Z" fill="black"/>
<path d="M47.6 149.6H40.8V156.4H47.6V149.6Z" fill="black"/>
<path d="M81.6 149.6H74.8V156.4H81.6V149.6Z" fill="black"/>
<path d="M88.4 149.6H81.6V156.4H88.4V149.6Z" fill="black"/>
<path d="M95.2 149.6H88.4V156.4H95.2V149.6Z" fill="black"/>
<path d="M102 149.6H95.2V156.4H102V149.6Z" fill="black"/>
<path d="M115.6 149.6H108.8V156.4H115.6V149.6Z" fill="black"/>
<path d="M122.4 149.6H115.6V156.4H122.4V149.6Z" fill="black"/>
<path d="M149.6 149.6H142.8V156.4H149.6V149.6Z" fill="black"/>
<path d="M163.2 149.6H156.4V156.4H163.2V149.6Z" fill="black"/>
<path d="M170 149.6H163.2V156.4H170V149.6Z" fill="black"/>
<path d="M6.8 156.4H0V163.2H6.8V156.4Z" fill="black"/>
<path d="M47.6 156.4H40.8V163.2H47.6V156.4Z" fill="black"/>
<path d="M61.2 156.4H54.4V163.2H61.2V156.4Z" fill="black"/>
<path d="M102 156.4H95.2V163.2H102V156.4Z" fill="black"/>
<path d="M108.8 156.4H102V163.2H108.8V156.4Z" fill="black"/>
<path d="M129.2 156.4H122.4V163.2H129.2V156.4Z" fill="black"/>
<path d="M136 156.4H129.2V163.2H136V156.4Z" fill="black"/>
<path d="M149.6 156.4H142.8V163.2H149.6V156.4Z" fill="black"/>
<path d="M156.4 156.4H149.6V163.2H156.4V156.4Z" fill="black"/>
<path d="M170 156.4H163.2V163.2H170V156.4Z" fill="black"/>
<path d="M6.8 163.2H0V170H6.8V163.2Z" fill="black"/>
<path d="M13.6 163.2H6.8V170H13.6V163.2Z" fill="black"/>
<path d="M20.4 163.2H13.6V170H20.4V163.2Z" fill="black"/>
<path d="M27.2 163.2H20.4V170H27.2V163.2Z" fill="black"/>
<path d="M34 163.2H27.2V170H34V163.2Z" fill="black"/>
<path d="M40.8 163.2H34V170H40.8V163.2Z" fill="black"/>
<path d="M47.6 163.2H40.8V170H47.6V163.2Z" fill="black"/>
<path d="M61.2 163.2H54.4V170H61.2V163.2Z" fill="black"/>
<path d="M95.2 163.2H88.4V170H95.2V163.2Z" fill="black"/>
<path d="M108.8 163.2H102L102 170H108.8V163.2Z" fill="black"/>
<path d="M122.4 163.2H115.6V170H122.4V163.2Z" fill="black"/>
<path d="M129.2 163.2H122.4V170H129.2V163.2Z" fill="black"/>
<path d="M136 163.2H129.2V170H136V163.2Z" fill="black"/>
<path d="M149.6 163.2H142.8V170H149.6V163.2Z" fill="black"/>
<path d="M170 163.2H163.2V170H170V163.2Z" fill="black"/>
</svg>
